<svg width="48" height="47" fill="none" xmlns="http://www.w3.org/2000/svg"><g filter="url(#filter0_d_122_446)"><path d="M7.5 9.5a1.5 1.5 0 010-3h33a1.5 1.5 0 010 3h-33zm6-6a1.5 1.5 0 010-3h21a1.5 1.5 0 010 3h-21zM0 38a4.5 4.5 0 004.5 4.5h39A4.5 4.5 0 0048 38V17a4.5 4.5 0 00-4.5-4.5h-39A4.5 4.5 0 000 17v21zm4.5 1.5A1.5 1.5 0 013 38V17a1.5 1.5 0 011.5-1.5h39A1.5 1.5 0 0145 17v21a1.5 1.5 0 01-1.5 1.5h-39z" fill="#908294"/></g><defs><filter id="filter0_d_122_446" x="-4" y=".5" width="56" height="50" filterUnits="userSpaceOnUse" color-interpolation-filters="sRGB"><feFlood flood-opacity="0" result="BackgroundImageFix"/><feColorMatrix in="SourceAlpha" values="0 0 0 0 0 0 0 0 0 0 0 0 0 0 0 0 0 0 127 0" result="hardAlpha"/><feOffset dy="4"/><feGaussianBlur stdDeviation="2"/><feComposite in2="hardAlpha" operator="out"/><feColorMatrix values="0 0 0 0 0 0 0 0 0 0 0 0 0 0 0 0 0 0 0.25 0"/><feBlend in2="BackgroundImageFix" result="effect1_dropShadow_122_446"/><feBlend in="SourceGraphic" in2="effect1_dropShadow_122_446" result="shape"/></filter></defs></svg>