<svg width="40" height="40" fill="none" xmlns="http://www.w3.org/2000/svg"><path d="M18.132 12.008l.368-.01h15a6.5 6.5 0 016.49 6.13l.01.37v15a6.5 6.5 0 01-6.132 6.49l-.368.01h-15a6.5 6.5 0 01-6.49-6.132L12 33.5v-15a6.5 6.5 0 016.132-6.49v-.002zm15.368 2.99h-15a3.5 3.5 0 00-3.488 3.212l-.012.288v15a3.5 3.5 0 003.214 3.488l.286.012h15a3.5 3.5 0 003.488-3.214l.012-.286v-15a3.5 3.5 0 00-3.5-3.5zM26 18a1.5 1.5 0 011.5 1.5v4.996h5a1.5 1.5 0 010 3h-5V32.5a1.5 1.5 0 11-3 0v-5.004h-5a1.5 1.5 0 110-3h5V19.5A1.5 1.5 0 0126 18zm1.164-13.534l.104.354 1.386 5.176h-3.106l-1.176-4.4a3.5 3.5 0 00-4.288-2.476L5.596 7.004a3.5 3.5 0 00-2.54 3.99l.064.296 3.884 14.488A3.5 3.5 0 0010 28.352v3.012a6.504 6.504 0 01-5.79-4.456l-.104-.352-3.882-14.49a6.5 6.5 0 014.24-7.856l.356-.104L19.308.224a6.5 6.5 0 017.856 4.24v.002z" fill="#908294"/></svg>