<svg width="24" height="23" fill="none" xmlns="http://www.w3.org/2000/svg"><path d="M17.4 0c-2.088 0-4.092.972-5.4 2.508C10.692.972 8.688 0 6.6 0 2.904 0 0 2.904 0 6.6c0 4.536 4.08 8.232 10.26 13.848L12 22.02l1.74-1.584C19.92 14.832 24 11.136 24 6.6 24 2.904 21.096 0 17.4 0zm-5.28 18.66l-.12.12-.12-.12C6.168 13.488 2.4 10.068 2.4 6.6c0-2.4 1.8-4.2 4.2-4.2 1.848 0 3.648 1.188 4.284 2.832h2.244C13.752 3.588 15.552 2.4 17.4 2.4c2.4 0 4.2 1.8 4.2 4.2 0 3.468-3.768 6.888-9.48 12.06z" fill="#BDAAC1"/></svg>