<svg width="29" height="27" fill="none" xmlns="http://www.w3.org/2000/svg"><path d="M2.148 6.733c0 2.292.778 3.946 2.31 4.917 1.257.798 2.713.917 3.47.917.184 0 .332-.009.435-.015 0 0-.24 1.54.92 3.062H9.23c-2.01 0-8.563.413-8.563 5.717C.667 26.725 6.686 27 7.894 27c.095 0 .151-.003.151-.003.013 0 .098.003.246.003.775 0 2.778-.095 4.638-.986 2.413-1.151 3.637-3.16 3.637-5.96 0-2.706-1.864-4.317-3.225-5.495-.831-.72-1.55-1.34-1.55-1.943 0-.613.526-1.075 1.188-1.66 1.074-.943 2.088-2.288 2.088-4.832 0-2.235-.295-3.737-2.111-4.69.188-.095.859-.164 1.19-.21.983-.132 2.422-.282 2.422-1.072V0h-7.17c-.071.003-7.25.264-7.25 6.733zM13.72 20.56c.137 2.157-1.738 3.748-4.555 3.949-2.86.207-5.215-1.06-5.352-3.216-.067-1.037.396-2.05 1.302-2.858.918-.817 2.18-1.324 3.551-1.423.162-.01.323-.019.483-.019 2.649.002 4.442 1.533 4.571 3.567zM11.85 5.256c.703 2.436-.359 4.98-2.052 5.45a2.24 2.24 0 01-.598.08c-1.55 0-3.085-1.543-3.656-3.67-.318-1.191-.291-2.238.073-3.24.357-.99 1.003-1.655 1.813-1.88.195-.054.396-.081.6-.081 1.871 0 3.075.764 3.82 3.34zm12.14 5.176V5.83h-3.117v4.602h-4.677V13.5h4.677v4.602h3.118V13.5h4.677v-3.068H23.99z" fill="#D53D5C"/></svg>