<svg width="33" height="28" fill="none" xmlns="http://www.w3.org/2000/svg"><path d="M29.388 7.328c.022.292.022.582.022.872 0 8.875-6.755 19.102-19.1 19.102A18.969 18.969 0 010 24.287c.54.061 1.06.083 1.622.083a13.45 13.45 0 008.335-2.868 6.727 6.727 0 01-6.279-4.655c.415.061.832.103 1.269.103.601 0 1.206-.083 1.768-.228a6.712 6.712 0 01-5.383-6.589v-.083c.895.498 1.933.81 3.033.852a6.704 6.704 0 01-2.993-5.59c0-1.247.331-2.39.913-3.387A19.095 19.095 0 0016.128 8.95a7.63 7.63 0 01-.166-1.538A6.71 6.71 0 0122.675.698c1.933 0 3.678.81 4.905 2.12 1.503-.29 2.944-.84 4.26-1.621a6.7 6.7 0 01-2.952 3.7 13.454 13.454 0 003.865-1.04 14.408 14.408 0 01-3.365 3.471z" fill="#D53D5C"/></svg>