<svg width="204" height="41" fill="none" xmlns="http://www.w3.org/2000/svg"><path d="M12.478 17.228l7.924-7.96 7.927 7.966 4.609-4.634L20.402 0 7.866 12.597l4.612 4.63zm-12.48 3.273l4.61-4.632 4.61 4.632-4.61 4.632-4.61-4.632zm12.48 3.271l7.924 7.963 7.927-7.966 4.612 4.627-.003.003L20.402 41 7.866 28.406l-.006-.007 4.618-4.627zm19.1-3.27l4.61-4.632 4.61 4.632-4.61 4.632-4.61-4.632z" fill="#896E6E"/><path d="M25.078 20.499l-4.676-4.702-3.458 3.475-.4.398-.818.822-.006.007.006.01 4.676 4.695 4.676-4.702.003-.003h-.003zM47.99 9.935h10.03c2.488 0 4.37.647 5.646 1.942a5.022 5.022 0 011.479 3.666v.062a5.42 5.42 0 01-.23 1.645 5.06 5.06 0 01-.615 1.295 4.774 4.774 0 01-.889 1.01c-.335.29-.701.54-1.092.745a7.3 7.3 0 012.955 1.943c.717.82 1.076 1.954 1.076 3.4v.062a5.673 5.673 0 01-.57 2.61 5.083 5.083 0 01-1.634 1.865 7.732 7.732 0 01-2.562 1.118c-1.086.258-2.2.384-3.316.372H47.99V9.935zm9.023 8.788a4.94 4.94 0 002.504-.544 1.875 1.875 0 00.922-1.755v-.061a1.928 1.928 0 00-.803-1.662c-.535-.382-1.307-.573-2.317-.573h-4.692v4.595h4.386zm1.267 8.76a4.559 4.559 0 002.481-.573 1.966 1.966 0 00.896-1.788v-.061a2.052 2.052 0 00-.835-1.723c-.554-.432-1.45-.648-2.687-.648h-5.508v4.793h5.653zM72.324 9.935h4.76v21.742h-4.76V9.934zm11.962 0h4.389l10.144 13.38V9.935h4.699v21.742h-4.05L88.99 17.855v13.822h-4.705V9.934zm33.643-.155h4.383l9.271 21.897h-4.969l-1.979-4.877h-9.149l-1.978 4.877h-4.853l9.274-21.898zm5.008 12.797l-2.881-7.053-2.868 7.053h5.749zm13.792-12.642h4.389l10.139 13.38V9.935h4.698v21.742h-4.051l-10.476-13.822v13.822h-4.699V9.934zm36.357 22.124a11.204 11.204 0 01-4.421-.868 10.675 10.675 0 01-3.518-2.373 10.743 10.743 0 01-2.325-3.56 11.552 11.552 0 01-.834-4.38v-.062a11.31 11.31 0 013.155-7.937 10.702 10.702 0 013.544-2.423 11.52 11.52 0 014.573-.884c.928-.007 1.854.077 2.765.25.78.148 1.542.377 2.275.683a9.821 9.821 0 011.885 1.055c.574.41 1.113.868 1.612 1.367l-3.026 3.51a11.533 11.533 0 00-2.578-1.803 6.572 6.572 0 00-2.952-.648 5.962 5.962 0 00-4.512 1.988 6.84 6.84 0 00-1.302 2.16c-.31.84-.466 1.73-.461 2.627v.061a7.567 7.567 0 00.461 2.623c.293.798.73 1.535 1.289 2.173a5.948 5.948 0 004.512 2.02 6.583 6.583 0 003.135-.683 12.117 12.117 0 002.549-1.865l3.03 3.076a15.516 15.516 0 01-1.731 1.62c-.606.481-1.264.893-1.962 1.227a10.13 10.13 0 01-2.333.774c-.932.188-1.88.279-2.83.272zm14.472-22.124h16.284v4.255h-11.601v4.41h10.215v4.255h-10.199v4.566h11.746v4.256h-16.435l-.01-21.742z" fill="#896E6E"/></svg>